<?xml version="1.0" standalone="no"?>
<!DOCTYPE svg PUBLIC "-//W3C//DTD SVG 20010904//EN"
 "http://www.w3.org/TR/2001/REC-SVG-20010904/DTD/svg10.dtd">
<svg version="1.0" xmlns="http://www.w3.org/2000/svg"
 width="527.000000pt" height="1016.000000pt" viewBox="0 0 527.000000 1016.000000"
 preserveAspectRatio="xMidYMid meet">

<g transform="translate(0.000000,1016.000000) scale(0.100000,-0.100000)"
fill="#000000" stroke="none">
<path d="M2532 7565 c-18 -8 -36 -14 -40 -14 -24 4 -43 -5 -77 -35 -21 -19
-42 -33 -46 -30 -4 2 -19 -6 -33 -19 -19 -17 -26 -35 -26 -59 0 -30 -4 -36
-25 -40 -14 -3 -28 -1 -31 3 -3 5 -25 9 -49 9 -33 0 -43 -3 -39 -14 4 -10 -7
-15 -40 -18 -61 -7 -93 -30 -116 -82 -12 -30 -28 -48 -53 -59 -51 -25 -61 -41
-54 -92 4 -27 3 -45 -3 -45 -6 0 -10 -5 -10 -11 0 -6 -11 -24 -25 -41 -29 -34
-32 -48 -10 -48 18 0 18 4 0 -67 -24 -95 -26 -150 -10 -211 8 -31 17 -115 19
-187 3 -71 13 -170 21 -220 9 -49 20 -112 23 -140 l7 -50 12 75 c7 41 18 127
24 190 10 107 14 122 61 220 28 58 51 115 52 127 0 13 4 23 8 23 4 0 5 6 2 13
-7 18 19 76 50 112 14 17 26 37 26 46 0 9 9 28 21 43 17 21 28 26 57 25 21 -2
46 2 57 8 86 47 237 64 335 38 36 -10 81 -17 100 -16 50 1 104 -15 196 -59
107 -52 115 -65 118 -194 1 -97 3 -103 33 -145 18 -24 36 -60 39 -80 4 -20 12
-52 19 -71 12 -33 11 -36 -7 -37 -32 -3 -131 -25 -147 -33 -9 -4 -29 -14 -46
-21 -16 -8 -46 -26 -65 -40 -19 -15 -50 -33 -67 -40 -37 -15 -37 -17 -22 -56
14 -36 39 -179 39 -223 0 -19 9 -67 20 -105 28 -99 26 -134 -11 -181 -17 -22
-48 -47 -70 -58 l-39 -18 -31 26 c-34 29 -89 35 -108 12 -15 -18 -6 -24 57
-40 38 -9 46 -15 44 -31 -2 -11 -12 -29 -23 -41 -11 -12 -17 -28 -14 -37 8
-19 56 -40 96 -41 16 -1 28 -5 27 -11 -2 -5 -37 -11 -78 -12 -41 -2 -91 -3
-110 -4 -19 -1 -62 3 -94 7 l-60 9 -2 41 c-1 23 -7 51 -13 62 -18 34 -13 67
19 107 17 21 30 44 30 52 0 36 -106 -19 -172 -89 -47 -49 -52 -93 -13 -108 20
-8 25 -16 26 -47 0 -48 32 -127 52 -131 9 -2 26 11 38 28 23 30 25 30 84 24
33 -3 77 -12 98 -20 53 -20 89 -19 85 4 -2 13 3 16 27 14 53 -5 63 -11 42 -27
-17 -12 -13 -15 36 -29 30 -9 62 -16 71 -16 21 0 20 -19 -1 -27 -10 -3 -32
-16 -49 -29 -18 -13 -50 -26 -73 -30 -55 -9 -79 -27 -66 -50 18 -28 114 -74
156 -74 20 0 44 -3 53 -6 17 -7 22 -44 6 -44 -5 0 -21 -13 -35 -28 -22 -25
-31 -28 -80 -27 -30 1 -55 -1 -55 -5 0 -19 -89 -6 -143 22 -32 16 -62 26 -66
23 -5 -2 -11 4 -14 15 -3 12 -14 20 -25 20 -11 0 -30 12 -42 27 -12 15 -27 28
-33 29 -32 3 -37 5 -37 14 0 6 7 10 15 10 18 0 20 16 3 23 -10 4 -9 8 2 16 8
5 11 13 7 17 -3 4 -13 1 -21 -5 -20 -17 -38 -4 -30 21 5 17 3 20 -10 15 -12
-5 -16 -1 -16 14 0 15 -5 19 -15 15 -9 -3 -15 0 -15 8 0 7 -9 21 -20 31 -11
10 -17 22 -14 26 10 17 -7 31 -22 18 -11 -9 -17 -9 -29 1 -17 14 -20 30 -5 30
6 0 10 -8 10 -17 0 -15 2 -16 10 -3 13 20 13 43 0 35 -5 -3 -10 -1 -10 4 0 6
-7 11 -16 11 -11 0 -14 5 -10 16 5 13 1 15 -19 10 -18 -5 -25 -2 -25 9 0 18
-26 20 -34 3 -3 -7 -3 -1 0 15 6 26 -8 38 -21 17 -12 -20 -23 -9 -29 31 -4 23
-13 47 -21 55 -28 28 -33 11 -11 -39 7 -18 21 -61 30 -97 28 -105 220 -470
248 -470 4 0 8 -5 8 -11 0 -6 25 -35 55 -66 30 -31 55 -62 55 -68 0 -7 7 -15
15 -19 8 -3 15 -11 15 -18 0 -7 11 -22 25 -32 14 -11 25 -29 25 -42 0 -13 6
-29 14 -36 11 -10 8 -20 -17 -61 -24 -40 -33 -47 -51 -41 -11 4 -25 13 -29 20
-4 8 -13 14 -20 14 -22 1 -74 74 -132 186 -71 136 -80 146 -70 74 5 -30 9 -76
10 -102 2 -25 6 -51 9 -57 4 -5 2 -12 -4 -16 -6 -4 -8 -11 -4 -16 7 -13 -15
-41 -27 -33 -5 3 -9 0 -9 -5 0 -21 -28 -11 -66 24 -21 19 -41 35 -45 35 -13 0
-65 -49 -52 -50 7 0 11 -12 10 -27 -1 -16 2 -40 6 -56 6 -23 4 -29 -18 -37
-14 -5 -25 -12 -25 -15 0 -9 74 7 81 18 4 5 13 7 20 4 9 -3 3 -10 -17 -18
l-31 -12 14 -56 c16 -68 16 -71 2 -71 -5 0 -7 5 -3 11 4 7 1 10 -7 7 -8 -2
-15 -21 -17 -41 -3 -31 0 -37 17 -37 11 0 21 8 23 18 2 9 8 -5 12 -31 l7 -49
42 6 c23 3 33 2 23 -1 -22 -6 -46 -27 -46 -41 0 -5 -12 -7 -26 -4 -23 4 -25 2
-22 -24 2 -20 8 -28 18 -26 8 2 19 4 24 5 19 4 16 -22 -3 -28 -12 -3 -21 -13
-21 -21 0 -18 39 -19 46 -1 5 15 34 19 34 5 0 -4 -4 -8 -9 -8 -6 0 -22 -11
-37 -25 -24 -22 -25 -25 -9 -31 11 -5 22 -1 30 10 11 15 13 14 13 -9 0 -13 -7
-30 -14 -36 -18 -15 -18 -29 1 -29 24 0 65 -22 65 -36 0 -7 6 -14 12 -16 7 -3
-9 -13 -35 -23 -28 -11 -52 -14 -57 -9 -5 5 -13 32 -19 59 -5 28 -17 75 -26
105 -8 30 -18 68 -21 84 -3 16 -6 32 -8 35 -2 3 -7 23 -10 44 -3 21 -16 73
-27 115 -12 42 -23 88 -26 100 -4 17 -8 20 -14 11 -4 -8 -11 -11 -14 -7 -4 3
-1 15 6 26 10 16 10 29 2 56 -8 27 -8 39 3 55 8 11 10 22 6 25 -11 7 -250 -53
-392 -99 -58 -18 -121 -36 -140 -40 -19 -5 -29 -10 -22 -12 7 -3 43 4 80 15
81 25 266 72 281 72 27 0 7 -20 -31 -32 -43 -12 -77 -42 -78 -66 0 -7 -7 -15
-15 -18 -10 -4 -15 -20 -15 -44 0 -21 -7 -43 -15 -50 -8 -7 -15 -9 -15 -6 0 4
-9 2 -20 -4 -13 -7 -20 -7 -20 -1 0 7 -9 7 -26 1 -33 -13 -33 -13 -27 13 4 18
3 19 -6 7 -6 -8 -11 -25 -11 -37 0 -12 -4 -24 -10 -28 -5 -3 -8 -21 -6 -40 1
-19 -1 -35 -5 -35 -4 0 3 -29 16 -65 14 -38 19 -65 13 -65 -6 0 -8 -9 -5 -20
4 -15 0 -20 -14 -20 -10 0 -19 -5 -19 -11 0 -6 8 -8 19 -4 11 3 22 1 26 -5 3
-5 1 -10 -4 -10 -6 0 -20 -9 -30 -19 -14 -14 -16 -22 -8 -30 8 -8 7 -11 -5
-11 -9 0 -20 -5 -24 -11 -5 -8 1 -10 20 -7 33 7 34 -5 1 -22 l-26 -14 47 -28
c218 -136 462 -239 709 -298 114 -28 323 -60 385 -60 26 0 29 3 25 29 -2 16
-9 39 -15 51 -7 13 -8 26 -2 33 6 8 4 36 -5 77 -8 36 -18 90 -23 120 -5 30
-12 69 -15 85 -6 30 -53 79 -87 90 -29 10 -21 25 13 25 30 0 31 1 25 34 l-7
35 33 -10 c58 -16 207 -12 307 10 116 26 175 52 301 137 55 37 102 65 105 63
2 -3 -11 -42 -31 -87 -32 -74 -34 -85 -24 -121 6 -22 15 -43 21 -47 7 -4 7 1
0 15 -15 28 -4 27 20 -1 23 -29 26 -57 4 -38 -22 18 -18 3 6 -23 15 -17 19
-18 14 -4 -5 10 -2 17 5 17 6 0 14 -9 17 -20 3 -11 9 -20 12 -20 4 0 7 -10 7
-22 -1 -24 3 -25 42 -13 13 4 22 2 22 -4 0 -6 -7 -11 -15 -11 -26 0 -16 -19
13 -23 25 -4 24 -4 -6 -6 -18 0 -31 -5 -28 -10 3 -5 -15 -31 -40 -57 -25 -27
-59 -69 -77 -94 -17 -25 -46 -65 -65 -89 -37 -49 -66 -101 -59 -107 7 -7 216
35 332 68 239 67 459 168 671 311 71 48 140 96 153 107 22 19 23 22 7 38 -9
10 -16 24 -16 31 0 7 -6 11 -14 8 -18 -7 -29 32 -14 50 7 9 7 13 -1 13 -6 0
-11 6 -11 14 0 7 -34 45 -75 82 -41 38 -75 72 -75 75 0 13 87 -13 219 -67 75
-30 143 -57 151 -61 8 -3 4 3 -9 13 -20 14 -189 95 -386 184 -22 10 -49 25
-60 34 -19 16 -18 16 15 1 l35 -16 -25 20 c-14 11 -36 26 -50 33 -14 7 -97 61
-185 120 -89 59 -166 108 -171 108 -6 0 -28 26 -49 58 -21 31 -57 82 -81 112
-123 156 -119 149 -119 220 0 59 5 76 59 185 61 123 93 210 116 305 11 46 50
120 50 95 0 -17 32 21 50 60 34 75 44 131 32 189 -6 29 -8 79 -5 109 8 75 -11
142 -49 180 l-30 31 6 110 c11 173 26 314 37 344 13 32 32 179 32 242 1 42
-14 80 -72 189 -10 19 -30 40 -44 48 -27 13 -36 33 -17 33 5 0 0 11 -12 25
-12 14 -30 25 -40 25 -10 0 -18 6 -18 13 0 17 -63 81 -114 116 -56 39 -146 69
-232 77 -38 3 -80 14 -94 22 -17 11 -50 17 -103 18 -43 1 -81 4 -84 8 -4 3 0
6 7 6 8 0 -3 9 -25 20 -46 24 -125 26 -173 5z m41 -217 c-13 -12 -26 -18 -30
-14 -4 4 1 14 11 22 31 22 43 17 19 -8z m-198 2 c-3 -5 -14 -10 -23 -9 -14 0
-13 2 3 9 27 11 27 11 20 0z m-82 -17 c-7 -2 -19 -2 -25 0 -7 3 -2 5 12 5 14
0 19 -2 13 -5z m356 3 c-2 -1 -19 -8 -36 -14 -37 -12 -45 -6 -10 8 22 9 54 13
46 6z m609 -1351 l42 -7 0 -60 c0 -33 -4 -77 -10 -97 -5 -20 -12 -48 -15 -63
-8 -39 -61 -88 -96 -88 -29 0 -89 30 -92 46 -1 5 -11 18 -23 29 -25 24 -44 95
-44 163 l0 49 63 16 c86 22 100 25 117 21 8 -1 34 -6 58 -9z m-458 -585 c3 -1
-6 -5 -20 -9 -27 -8 -43 -4 -35 8 4 7 41 8 55 1z m-757 -785 c1 -5 -10 -11
-25 -13 -16 -2 -28 1 -28 7 0 20 49 26 53 6z m-163 -27 c0 -7 -8 -22 -16 -33
-16 -19 -16 -19 -12 7 3 15 0 29 -6 32 -6 2 -1 5 12 5 12 1 22 -5 22 -11z
m-115 -8 c-3 -5 -12 -10 -18 -10 -7 0 -6 4 3 10 19 12 23 12 15 0z m410 0 c3
-5 1 -10 -4 -10 -6 0 -11 5 -11 10 0 6 2 10 4 10 3 0 8 -4 11 -10z m-480 -97
c5 -20 1 -31 -13 -42 -11 -9 -23 -24 -28 -33 -9 -16 -10 -16 -22 2 -10 17 -10
20 3 20 8 0 15 9 15 21 0 24 17 59 29 59 5 0 12 -12 16 -27z m57 -19 c-5 -11
-7 -24 -5 -31 2 -6 -2 -15 -9 -19 -7 -4 -10 -3 -5 1 4 5 0 16 -8 25 -13 14
-13 19 3 38 20 24 39 13 24 -14z m288 22 c0 -16 -18 -31 -27 -22 -8 8 5 36 17
36 5 0 10 -6 10 -14z m120 -326 c0 -5 -9 -10 -21 -10 -11 0 -17 5 -14 10 3 6
13 10 21 10 8 0 14 -4 14 -10z m170 0 c0 -5 -5 -10 -11 -10 -5 0 -7 5 -4 10 3
6 8 10 11 10 2 0 4 -4 4 -10z m825 -20 c3 -5 1 -10 -4 -10 -6 0 -11 5 -11 10
0 6 2 10 4 10 3 0 8 -4 11 -10z m-797 -16 c15 -15 14 -18 -11 -36 -25 -18 -40
-47 -17 -33 15 10 70 24 70 19 0 -7 -181 -91 -210 -98 -20 -5 -18 -3 8 11 17
9 32 20 32 25 0 5 -9 4 -21 -2 -11 -6 -28 -9 -37 -7 -14 3 -12 6 8 15 14 6 19
11 11 11 -8 1 1 11 20 24 44 30 70 40 94 38 11 0 27 3 35 9 13 8 12 11 -5 24
-12 10 -15 15 -7 16 7 0 21 -7 30 -16z m-145 -30 c-31 -26 -41 -28 -63 -14
-13 9 -13 11 0 20 8 5 21 8 28 5 7 -3 15 2 18 9 3 8 14 12 26 8 19 -4 18 -6
-9 -28z m1007 -49 c35 -51 38 -63 10 -35 -11 11 -20 23 -20 26 0 3 -10 20 -22
37 -12 17 -17 27 -10 23 6 -4 25 -27 42 -51z m885 36 c3 -5 1 -12 -5 -16 -5
-3 -10 1 -10 9 0 18 6 21 15 7z m-483 -131 c2 -18 -1 -34 -7 -36 -6 -2 -11 18
-11 48 -2 55 13 46 18 -12z m-27 0 c-3 -5 -13 -10 -21 -10 -8 0 -12 5 -9 10 3
6 13 10 21 10 8 0 12 -4 9 -10z m-170 -43 c13 -3 9 -5 -12 -6 -18 0 -33 1 -33
3 0 2 -3 13 -7 23 -6 17 -5 17 13 2 10 -10 28 -19 39 -22z m-1085 -41 c8 -24
8 -27 -5 -16 -9 7 -15 28 -14 49 1 20 3 27 6 16 2 -11 8 -33 13 -49z m1245 43
c5 -5 -3 -9 -22 -9 -17 0 -37 7 -44 16 -12 15 -10 16 21 9 19 -4 39 -11 45
-16z m-1345 -289 c0 -5 -5 -10 -11 -10 -5 0 -7 5 -4 10 3 6 8 10 11 10 2 0 4
-4 4 -10z m27 -22 c-3 -8 -6 -5 -6 6 -1 11 2 17 5 13 3 -3 4 -12 1 -19z"/>
<path d="M2266 4035 c-25 -19 -16 -19 20 0 16 8 22 15 14 15 -8 -1 -24 -7 -34
-15z"/>
<path d="M2165 6382 c-1 -2 -15 -5 -31 -8 -38 -7 -42 -12 -46 -59 -4 -48 16
-57 67 -29 29 15 39 16 92 5 63 -14 91 -26 82 -36 -4 -3 -33 -10 -65 -15 -82
-13 -124 -37 -124 -71 0 -29 17 -35 120 -38 45 -1 90 -17 90 -33 0 -4 -9 -8
-19 -8 -28 0 -34 -28 -10 -41 12 -6 50 -11 85 -10 70 0 122 21 163 65 14 14
29 26 34 26 12 0 46 42 47 57 0 6 14 23 30 36 39 33 38 45 -7 63 -68 28 -123
56 -129 66 -3 5 -13 7 -21 4 -8 -3 -29 2 -46 11 -25 12 -63 16 -170 17 -76 1
-140 0 -142 -2z m163 -168 c-3 -3 -27 -12 -52 -19 -49 -15 -65 -3 -18 13 29
11 79 15 70 6z"/>
<path d="M1802 6179 c1 -17 6 -28 12 -26 17 6 19 44 2 50 -11 4 -14 -2 -14
-24z"/>
<path d="M1876 6063 c-28 -28 -42 -65 -31 -83 5 -8 12 -6 25 5 17 15 19 15 29
-2 9 -15 10 -14 11 13 0 17 3 46 6 63 8 38 -5 40 -40 4z"/>
<path d="M1921 5843 c-1 -23 4 -45 9 -48 12 -7 12 29 0 65 -7 21 -8 19 -9 -17z"/>
<path d="M1941 5724 c-1 -42 10 -94 20 -94 8 0 2 55 -12 100 -7 24 -7 24 -8
-6z"/>
<path d="M2098 4860 c-3 -19 -9 -45 -13 -57 -6 -18 -3 -23 9 -23 23 0 29 22
19 72 l-9 43 -6 -35z"/>
<path d="M1980 4780 c-13 -8 -13 -10 2 -10 9 0 20 5 23 10 8 13 -5 13 -25 0z"/>
<path d="M2103 4734 c-1 -38 2 -42 16 -16 6 11 5 23 -3 34 -10 14 -12 12 -13
-18z"/>
<path d="M1930 4590 c0 -5 5 -10 10 -10 6 0 10 5 10 10 0 6 -4 10 -10 10 -5 0
-10 -4 -10 -10z"/>
<path d="M1950 4500 c0 -5 5 -10 10 -10 6 0 10 5 10 10 0 6 -4 10 -10 10 -5 0
-10 -4 -10 -10z"/>
<path d="M1276 4471 c-4 -5 3 -7 14 -4 23 6 26 13 6 13 -8 0 -17 -4 -20 -9z"/>
<path d="M1955 4461 c-6 -11 9 -23 19 -14 9 9 7 23 -3 23 -6 0 -12 -4 -16 -9z"/>
<path d="M1210 4450 c-8 -5 -10 -10 -5 -10 6 0 17 5 25 10 8 5 11 10 5 10 -5
0 -17 -5 -25 -10z"/>
<path d="M1536 4433 c-12 -13 -5 -31 14 -36 15 -4 20 0 20 13 0 18 -23 34 -34
23z"/>
<path d="M1980 4305 c0 -8 9 -15 20 -15 11 0 20 7 20 15 0 8 -9 15 -20 15 -11
0 -20 -7 -20 -15z"/>
<path d="M2000 4270 c-8 -5 -11 -12 -8 -16 10 -9 38 3 38 16 0 12 -10 13 -30
0z"/>
<path d="M4235 4109 c-11 -17 1 -21 15 -4 8 9 8 15 2 15 -6 0 -14 -5 -17 -11z"/>
<path d="M3063 4043 c-17 -32 -36 -80 -43 -108 -7 -27 -16 -54 -21 -60 -4 -5
-14 -35 -22 -66 l-14 -55 61 33 c34 18 68 33 77 33 17 0 78 56 80 74 1 6 2 18
3 26 2 31 -68 180 -85 180 -3 0 -20 -26 -36 -57z m91 -106 c-3 -90 -114 -121
-114 -32 0 29 57 77 87 73 25 -3 28 -7 27 -41z"/>
<path d="M2075 3999 c-11 -17 1 -21 15 -4 8 9 8 15 2 15 -6 0 -14 -5 -17 -11z"/>
<path d="M2086 3971 c-14 -5 -16 -10 -7 -15 15 -9 41 -1 41 14 0 11 -7 12 -34
1z"/>
</g>
</svg>
